<svg xmlns="http://www.w3.org/2000/svg" width="310" height="310" viewBox="0 0 310 310" version="1.1"><path d="M 110.224 25.420 C 89.342 33.839, 72.738 47.365, 76.993 52.491 C 78.664 54.505, 81.568 53.657, 91.146 48.359 C 95.477 45.964, 103.404 41.716, 108.760 38.921 C 122.759 31.615, 127.996 27.923, 127.998 25.357 C 128.002 20.885, 121.416 20.908, 110.224 25.420" stroke="none" fill="#ecfabd" fill-rule="evenodd"/><path d="M 133.500 16.018 C 107.949 21.123, 83.262 34.609, 69.005 51.250 C 64.058 57.025, 66.466 55.690, 72.188 49.485 C 107.369 11.341, 176.469 4.809, 219.500 35.561 C 225.910 40.141, 233.591 47.539, 230.851 46.493 C 227.796 45.327, 227.733 48.128, 230.743 51.336 C 238.589 59.701, 245.734 74.265, 248.455 87.436 C 250.779 98.689, 250.612 101.624, 247.750 99.779 C 244.430 97.639, 240.920 96.972, 238.838 98.087 C 235.936 99.640, 236.673 101.549, 240.913 103.461 C 264.641 114.161, 249.904 156.391, 220.319 162.475 C 213.855 163.804, 212.632 186.610, 218.298 200.171 C 219.400 202.808, 219.511 204.089, 218.708 204.892 C 216.492 207.108, 223.437 213.480, 231.996 217.086 C 233.368 217.664, 235.900 219.212, 237.622 220.525 C 239.344 221.838, 242.651 223.495, 244.971 224.206 C 250.354 225.857, 252.750 229.774, 250.984 234.038 C 246.887 243.929, 213 238.201, 213 227.618 C 213 225.557, 216.915 225.468, 219.559 227.468 C 220.626 228.276, 222.400 228.926, 223.500 228.913 C 225.215 228.892, 225.077 228.576, 222.534 226.694 C 212.097 218.973, 203.750 208.944, 196.152 195 C 193.861 190.795, 191.443 187.553, 190.649 187.620 C 189.148 187.746, 181.659 170.322, 180.204 163.320 C 179.256 158.758, 176.830 157.883, 175.178 161.508 C 173.012 166.263, 174.169 180.830, 178.513 203.500 C 179.356 207.900, 180.699 215.100, 181.497 219.500 C 186.536 247.273, 186.214 246, 188.197 246 C 189.246 246, 188.670 232.904, 187.296 225.521 C 186.737 222.515, 186.744 222.510, 188.668 224.500 C 191.816 227.757, 191.937 228.825, 192.533 258.781 C 193.286 296.597, 196.059 300.283, 206.609 277.488 C 210.983 268.037, 212.058 267.059, 211.267 273.250 C 209.192 289.490, 195.629 303.567, 187.666 297.745 C 185 295.796, 175.068 260.386, 168.944 231 C 167.740 225.225, 166.328 218.700, 165.804 216.500 C 165.281 214.300, 164.499 207.775, 164.067 202 C 163.545 195.032, 162.392 188.882, 160.639 183.717 C 159.187 179.436, 157.436 171.117, 156.749 165.229 C 154.484 145.815, 150.021 151.194, 149.970 173.399 C 149.934 188.963, 146.712 214.836, 142.172 236 C 137.053 259.870, 134.049 277.238, 133.523 286 C 132.744 299, 132.342 301, 130.507 301 C 127.462 301, 123.621 288.872, 122.105 274.473 C 121.266 266.500, 121.266 266.500, 121.133 272.685 C 120.790 288.624, 127.688 306.169, 132.432 301.425 C 134.002 299.855, 134.241 298.857, 136.485 284.500 C 137.259 279.550, 138.578 272.575, 139.416 269 C 143.729 250.600, 145.184 244.741, 147.487 236.500 C 154.540 211.267, 156.057 199.532, 153.501 190 C 151.516 182.596, 150.736 170.906, 151.705 163.082 C 152.725 154.849, 155 153.561, 155 161.217 C 155 167.026, 157.839 180.732, 160.549 188 C 161.703 191.097, 162.465 197.645, 162.992 209 C 163.414 218.075, 164.038 226.175, 164.379 227 C 164.935 228.345, 165.813 232.699, 170.530 257.500 C 178.192 297.792, 189.395 309.588, 204.316 293.072 C 210.414 286.322, 217.210 259.261, 211.647 263.878 C 210.741 264.630, 210 265.880, 210 266.656 C 210 271.565, 201.918 283, 198.448 283 C 194.274 283, 193.917 281.284, 195.168 267.218 C 197.536 240.593, 194.452 221.281, 184.512 200.500 C 176.171 183.062, 172.255 161, 177.500 161 C 178.412 161, 179 161.930, 179 163.374 C 179 164.680, 180.514 169.518, 182.365 174.124 C 184.215 178.731, 186.079 183.625, 186.507 185 C 186.934 186.375, 189.853 193.575, 192.993 201 C 196.133 208.425, 199.271 216.975, 199.967 220 C 202.037 229.004, 209.913 235.884, 221.059 238.423 C 256.199 246.428, 262.798 234.160, 236.495 209.728 C 227.387 201.267, 225.135 197.023, 220.043 178.719 C 216.304 165.280, 220.174 157.358, 225.071 168.427 C 226.183 170.942, 227.410 172.995, 227.797 172.988 C 234.460 172.876, 246.935 166.485, 249.687 161.774 C 292.145 89.092, 220.103 -1.285, 133.500 16.018 M 214.250 46.662 C 211.328 47.841, 217.322 55.718, 220.376 54.713 C 222.664 53.961, 222.125 50.243, 219.420 48.115 C 216.623 45.916, 216.315 45.829, 214.250 46.662 M 49.136 89.343 C 49.061 89.807, 48.053 94.757, 46.896 100.343 C 43.987 114.390, 44.562 136.714, 48.049 145.033 C 55.319 162.381, 79 181.128, 79 169.535 C 79 165.295, 81.774 163.274, 85.129 165.069 C 91.107 168.269, 85.971 180.608, 69.589 202.401 C 48.652 230.253, 47.764 237.500, 65.043 239.505 C 79.705 241.207, 87.967 236.953, 89.667 226.829 C 91.319 216.991, 95.790 206.549, 97.087 209.500 C 97.904 211.360, 97.949 211.340, 97.733 209.210 C 96.902 201.042, 89.946 215.327, 87.542 230.137 C 86.564 236.165, 75.064 239.966, 63.612 238.047 C 53.211 236.303, 51.612 231.909, 57.647 221.651 C 59.216 218.984, 61.339 215.384, 62.366 213.651 C 65.305 208.686, 78.024 193.057, 79.975 192.013 C 84.479 189.603, 89.750 171.731, 87.527 166.410 C 86.030 162.827, 81.771 161.629, 79.303 164.097 C 76.532 166.868, 57.820 151.182, 50.984 140.357 C 46.374 133.057, 45.161 112.341, 48.566 99.050 C 49.427 95.689, 49.938 91.941, 49.702 90.720 C 49.466 89.499, 49.211 88.879, 49.136 89.343 M 56.828 100.787 C 52.669 103.860, 50 107.814, 50 110.904 C 50 114.168, 52.640 113.405, 56.631 108.987 C 58.625 106.780, 61.336 104.703, 62.655 104.372 C 65.655 103.619, 67.355 100.755, 65.753 99.153 C 63.902 97.302, 60.769 97.875, 56.828 100.787 M 239 99.774 C 239 100.344, 240.978 101.969, 243.395 103.385 C 245.812 104.802, 248.933 107.320, 250.330 108.980 C 253.321 112.535, 254 112.716, 254 109.961 C 254 106.585, 247.049 100.019, 242.750 99.335 C 240.446 98.968, 239 99.138, 239 99.774 M 56.126 102.883 C 53.163 105.651, 50.438 110.771, 51.410 111.744 C 51.667 112, 53.257 110.638, 54.944 108.716 C 56.632 106.794, 59.584 104.476, 61.506 103.564 C 65.754 101.549, 66.014 100, 62.106 100 C 60.296 100, 58.055 101.081, 56.126 102.883 M 74.791 105.991 C 51.995 112.843, 57.522 151.282, 82.342 158.497 C 85.433 159.396, 88.223 160.552, 88.541 161.066 C 91.233 165.422, 102.645 160.292, 106.947 152.791 C 118.028 133.468, 94.980 99.922, 74.791 105.991 M 220.718 106.094 C 204.713 109.852, 189.806 132.897, 194.421 146.745 C 199.906 163.208, 206.923 165.311, 225.924 156.190 C 252.416 143.471, 247.869 99.719, 220.718 106.094 M 70.753 109.460 C 59.353 117.394, 59.008 139.074, 70.104 150.191 C 80.914 161.020, 103.180 159.952, 107.594 148.393 C 115.507 127.673, 87.346 97.913, 70.753 109.460 M 215.261 109.515 C 195.794 119.372, 188.059 149.437, 203.596 154.864 C 224.563 162.188, 242.060 149.289, 241.978 126.568 C 241.920 110.472, 229.292 102.412, 215.261 109.515 M 116.519 157.973 C 112.842 163.279, 113.667 166.085, 117.998 163.001 C 121.512 160.499, 123.379 157.430, 122.608 155.422 C 121.650 152.923, 119.351 153.886, 116.519 157.973 M 125.719 166.290 C 125.424 167.058, 124.861 170.345, 124.468 173.593 C 124.075 176.842, 123.368 179.985, 122.896 180.579 C 122.425 181.172, 120.889 184.714, 119.483 188.450 C 118.076 192.186, 116.239 196.571, 115.400 198.193 C 114.250 200.416, 114.153 201.479, 115.005 202.506 C 115.870 203.549, 114.969 207.337, 111.158 218.684 C 102.232 245.256, 100.018 255.041, 99.956 268.197 C 99.912 277.500, 99.912 277.500, 98.458 273.500 C 95.272 264.740, 94.510 243.288, 96.470 217.500 C 96.926 211.500, 96.926 211.500, 95.814 216 C 91.391 233.888, 95.070 273.617, 102.262 285.641 C 106.703 293.066, 108.163 293.264, 106.197 286.175 C 102.499 272.834, 104.285 253.129, 109.925 245.058 C 111.028 243.479, 111.968 239.646, 112.382 235.043 C 113.119 226.849, 114.668 220.127, 118.962 206.500 C 122.361 195.715, 125.011 183.054, 125.870 173.500 C 126.345 168.224, 126.869 166.500, 128 166.500 C 132.664 166.500, 130.755 192.110, 124.513 213.266 C 119.954 228.719, 118.369 243.197, 119.780 256.500 C 120.841 266.500, 120.841 266.500, 120.407 253.500 C 119.975 240.531, 120.725 233.500, 122.541 233.500 C 123.068 233.500, 123.636 236.425, 123.803 240 C 124.170 247.874, 125.986 250.688, 126.030 243.450 C 126.047 240.728, 126.968 231.750, 128.077 223.500 C 130.594 204.784, 132.415 173.388, 131.247 168.858 C 130.331 165.305, 126.738 163.636, 125.719 166.290 M 91.563 185.750 C 88.521 195.458, 86.096 199.107, 75.357 210.140 C 64.530 221.263, 64.069 221.982, 66.487 223.989 C 75.115 231.150, 95.550 206.689, 96.761 187.750 C 97.420 177.445, 94.516 176.328, 91.563 185.750 M 58.095 185.250 C 54.855 189.500, 54.855 189.500, 58.404 185.610 C 61.953 181.721, 61.953 181.721, 63.882 184.103 C 66.914 187.846, 60.453 195.185, 49.338 200.623 C 43.617 203.422, 40.974 203.065, 44.750 200.004 C 45.987 199, 47 197.830, 47 197.403 C 47 196.975, 45.650 197.919, 44 199.500 C 39.860 203.466, 40.198 204.347, 45.550 203.545 C 62.841 200.952, 71.187 193.206, 65.512 185.017 C 62.071 180.052, 62.057 180.053, 58.095 185.250 M 93.500 184.250 C 92.118 191.060, 83.650 206.386, 78.268 211.815 C 70.930 219.219, 71.761 222.882, 79.683 218.052 C 87.768 213.122, 94.694 200.040, 95.724 187.751 C 96.322 180.614, 94.742 178.126, 93.500 184.250 M 238.200 185.200 C 233.860 189.540, 247.429 200.485, 258.750 201.776 C 263.429 202.309, 264.221 201.242, 260.750 199.080 C 258.691 197.797, 258.616 197.819, 259.872 199.339 C 262.155 202.101, 258.581 201.427, 251.814 197.820 C 245.519 194.465, 238.608 187.465, 239.442 185.289 C 240.059 183.684, 239.739 183.661, 238.200 185.200 M 233.004 195.623 C 233.009 196.946, 250.161 214.528, 252.799 215.915 C 255.780 217.481, 261.040 215.863, 266.250 211.775 C 270.519 208.424, 271.441 205.240, 267.750 206.589 C 258.981 209.796, 245.680 206.433, 237.574 198.962 C 235.058 196.643, 233.002 195.140, 233.004 195.623 M 221 198.470 C 221 201.739, 228.895 213, 231.187 213 C 232.640 213, 232.060 211.342, 228.596 205.589 C 223.471 197.078, 221 194.762, 221 198.470 M 248.796 211.151 C 254.584 216.550, 261.203 215.937, 267 209.468 C 268.375 207.933, 268.884 207.034, 268.132 207.471 C 264.950 209.316, 259.732 209.665, 252.443 208.521 C 244.670 207.302, 244.670 207.302, 248.796 211.151 M 53 209.213 C 51.625 209.744, 47.217 209.980, 43.205 209.737 C 34.461 209.207, 33.696 210.909, 41 214.643 C 47.430 217.930, 51.340 217.735, 54.004 213.994 C 56.828 210.028, 56.382 207.905, 53 209.213 M 37.446 210.913 C 38.394 212.447, 46.474 216, 49.015 216 C 50.032 216, 51.862 214.598, 53.082 212.885 C 55.300 209.770, 55.300 209.770, 52.900 210.635 C 49.803 211.751, 41.055 211.700, 38.586 210.551 C 37.156 209.885, 36.868 209.977, 37.446 210.913 M 154.249 240.250 C 153.650 242.588, 152.364 247.276, 151.390 250.668 C 148.858 259.490, 151.387 262.481, 157.347 257.712 C 160.014 255.578, 160.130 255.183, 159.186 251.467 C 158.632 249.285, 157.881 244.912, 157.517 241.750 C 156.731 234.915, 155.732 234.456, 154.249 240.250 M 203.710 244.750 C 204.021 247.912, 204.329 250.578, 204.394 250.673 C 204.460 250.768, 206.085 249.551, 208.006 247.967 C 211.500 245.088, 211.500 245.088, 209.299 243.522 C 208.089 242.660, 206.433 241.290, 205.621 240.478 C 203.307 238.165, 203.107 238.614, 203.710 244.750" stroke="none" fill="#5a7f65" fill-rule="evenodd"/><path d="M 0 155.003 C 0 310.006, 0 310.006, 155.250 309.753 C 310.500 309.500, 310.500 309.500, 310.753 154.750 C 311.006 0, 311.006 0, 155.503 0 C 0 0, 0 0, 0 155.003 M 0.488 155.500 C 0.487 240.750, 0.606 275.773, 0.750 233.329 C 0.894 190.884, 0.894 121.134, 0.750 78.329 C 0.606 35.523, 0.488 70.250, 0.488 155.500 M 140.500 3.613 C 119.654 6.804, 86.769 22.590, 71.455 36.758 C 37.374 68.285, 24.628 127.323, 44.847 160 C 46.719 163.025, 50.298 167.620, 52.799 170.211 C 57.348 174.922, 57.348 174.922, 43.808 188.711 C 36.360 196.295, 29.939 203.552, 29.539 204.837 C 27.426 211.614, 34.386 220.601, 43.533 222.904 C 47.545 223.914, 47.934 224.254, 47.024 225.955 C 40.470 238.201, 54.090 249, 76.088 249 C 86.422 249, 86.499 249.066, 87.826 259 C 90.396 278.233, 97.444 294.089, 107.096 302.350 C 115.507 309.550, 120.183 305.597, 115.532 295.219 C 114.615 293.173, 113.501 290.600, 113.057 289.500 C 112.613 288.400, 111.743 286.241, 111.125 284.703 C 109.809 281.431, 109.638 267.120, 110.890 265.144 C 111.832 263.658, 112.968 268.030, 115.011 281 C 120.863 318.154, 138.265 319.651, 144.078 283.500 C 144.697 279.650, 145.424 275.107, 145.693 273.404 C 146.183 270.309, 146.183 270.309, 149.708 272.106 C 153.119 273.845, 153.397 273.841, 158.307 271.975 C 161.098 270.915, 163.423 270.149, 163.474 270.274 C 163.526 270.398, 164.167 272.300, 164.899 274.500 C 175.886 307.512, 190.452 316.331, 207.030 300.007 C 216.875 290.312, 220.411 275.558, 217.816 255 C 217.506 252.550, 217.671 252.486, 226 251.803 C 248.987 249.917, 260.711 242.123, 259.725 229.382 C 259.252 223.265, 259.252 223.265, 264.112 221.143 C 278.018 215.071, 278.602 202.248, 265.389 193.124 C 256.456 186.956, 250.626 178.373, 253.672 175.872 C 260.628 170.161, 268.553 152.024, 270.001 138.500 C 272.543 114.769, 270.932 91.291, 265.954 79.500 C 265.489 78.400, 264.166 75.250, 263.013 72.500 C 255.045 53.500, 241.046 35.556, 225.583 24.522 C 218.459 19.438, 202.502 11, 200.013 11 C 199.126 11, 197.972 10.625, 197.450 10.167 C 196.927 9.709, 192.900 8.526, 188.500 7.538 C 184.100 6.549, 179.150 5.325, 177.500 4.818 C 174.229 3.811, 145.349 2.871, 140.500 3.613 M 71.408 124.500 C 69.891 126.816, 69.891 127.184, 71.408 129.500 C 74.756 134.609, 82.121 130.604, 80.591 124.507 C 79.688 120.910, 73.764 120.905, 71.408 124.500 M 217.667 122.667 C 216.160 124.173, 217.052 128.958, 219.038 130.020 C 223.164 132.229, 226.983 128.671, 225.500 124 C 224.870 122.016, 219.271 121.062, 217.667 122.667 M 242.750 184.430 C 239.850 186.569, 243.317 191.439, 251.215 196.322 C 254.889 198.593, 256.863 198.453, 254.337 196.099 C 251.574 193.526, 245.359 185.780, 244.884 184.320 C 244.596 183.436, 244.061 183.464, 242.750 184.430 M 53.500 192.747 C 45.500 201.363, 45.500 201.363, 50.668 198.567 C 59.579 193.746, 66.493 185.467, 62.500 184.398 C 61.950 184.251, 57.900 188.008, 53.500 192.747" stroke="none" fill="#fcfcfc" fill-rule="evenodd"/><path d="" stroke="none" fill="#dee4e2" fill-rule="evenodd"/><path d="M 229.374 143.545 C 225.983 147, 222.464 149.433, 218.977 150.734 C 213.162 152.903, 213.685 154.645, 219.815 153.525 C 227.491 152.122, 236 144.817, 236 139.632 C 236 137.212, 235.022 137.790, 229.374 143.545 M 68.510 142.250 C 70.331 148.606, 84.126 156.700, 89.575 154.610 C 91.710 153.790, 90.381 152, 87.637 152 C 83.934 152, 75.343 147.139, 72.531 143.451 C 69.519 139.502, 67.554 138.916, 68.510 142.250" stroke="none" fill="#a45058" fill-rule="evenodd"/><path d="M 134.720 6.521 C 128.349 7.911, 127.016 8.378, 112.500 14.302 C 45.325 41.717, 13.329 125.381, 53.509 168.554 C 60.405 175.965, 61.056 174.067, 46.750 188.241 C 29.732 205.101, 28.431 207.584, 33.151 214.211 C 35.263 217.178, 43.896 221.971, 47.162 221.990 C 48.588 221.999, 48.802 223.153, 48.662 230.101 C 48.417 242.327, 55.572 246.733, 76.730 247.387 C 87.052 247.705, 89 248.666, 89 253.439 C 89 270.743, 99.561 295.101, 110.147 302.210 C 116.387 306.401, 117.781 304.063, 113.871 295.968 C 106.855 281.447, 105.620 258.586, 112.038 262.020 C 114.213 263.184, 114.239 263.278, 116.544 278.500 C 119.585 298.574, 123.380 307.028, 129.323 306.968 C 136.707 306.894, 139.886 299.541, 143.718 273.664 C 144.400 269.059, 145.514 268.481, 150.053 270.377 C 153.063 271.633, 154.008 271.629, 157.500 270.342 C 159.700 269.532, 162.175 268.651, 163 268.386 C 164.100 268.032, 165.140 269.715, 166.903 274.702 C 171.031 286.381, 176.322 296.294, 181.066 301.240 C 197.500 318.371, 222.438 287.585, 216.093 258 C 214.613 251.095, 215.779 250, 224.610 250 C 247.755 250, 262.846 237.613, 256.580 223.758 C 255.756 221.935, 256.115 221.690, 261.275 220.558 C 275.099 217.525, 276.849 203.275, 264.481 194.449 C 252.327 185.776, 248.172 178.114, 253.086 173.437 C 276.349 151.294, 274.903 89.714, 250.249 52.620 C 227.038 17.699, 176.295 -2.550, 134.720 6.521 M 133.500 16.018 C 93.739 23.962, 62.814 48.482, 52.107 80.554 C 37.571 124.093, 45.011 158.210, 71.904 171.338 C 77.351 173.998, 79 173.579, 79 169.535 C 79 165.295, 81.774 163.274, 85.129 165.069 C 91.107 168.269, 85.971 180.608, 69.589 202.401 C 48.652 230.253, 47.764 237.500, 65.043 239.505 C 79.705 241.207, 87.967 236.953, 89.667 226.829 C 90.912 219.417, 95.466 207.133, 96.563 208.229 C 96.858 208.524, 96.514 211.856, 95.800 215.633 C 91.591 237.868, 94.859 273.264, 102.262 285.641 C 106.703 293.066, 108.163 293.264, 106.197 286.175 C 102.499 272.834, 104.285 253.129, 109.925 245.058 C 111.028 243.479, 111.968 239.646, 112.382 235.043 C 113.119 226.849, 114.668 220.127, 118.962 206.500 C 122.361 195.715, 125.011 183.054, 125.870 173.500 C 126.345 168.224, 126.869 166.500, 128 166.500 C 132.633 166.500, 130.765 192.053, 124.601 213 C 114.966 245.740, 120.917 312.940, 132.432 301.425 C 134.002 299.855, 134.241 298.857, 136.485 284.500 C 137.259 279.550, 138.578 272.575, 139.416 269 C 143.729 250.600, 145.184 244.741, 147.487 236.500 C 154.540 211.267, 156.057 199.532, 153.501 190 C 151.516 182.596, 150.736 170.906, 151.705 163.082 C 152.725 154.849, 155 153.561, 155 161.217 C 155 167.026, 157.839 180.732, 160.549 188 C 161.703 191.097, 162.465 197.645, 162.992 209 C 163.414 218.075, 164.038 226.175, 164.379 227 C 164.935 228.345, 165.813 232.699, 170.530 257.500 C 178.192 297.792, 189.395 309.588, 204.316 293.072 C 210.414 286.322, 217.210 259.261, 211.647 263.878 C 210.741 264.630, 210 265.880, 210 266.656 C 210 271.565, 201.918 283, 198.448 283 C 194.274 283, 193.917 281.284, 195.168 267.218 C 197.536 240.593, 194.452 221.281, 184.512 200.500 C 176.171 183.062, 172.255 161, 177.500 161 C 178.412 161, 179 161.930, 179 163.374 C 179 164.680, 180.514 169.518, 182.365 174.124 C 184.215 178.731, 186.079 183.625, 186.507 185 C 186.934 186.375, 189.853 193.575, 192.993 201 C 196.133 208.425, 199.271 216.975, 199.967 220 C 202.037 229.004, 209.913 235.884, 221.059 238.423 C 256.199 246.428, 262.798 234.160, 236.495 209.728 C 227.387 201.267, 225.135 197.023, 220.043 178.719 C 216.304 165.280, 220.174 157.358, 225.071 168.427 C 226.183 170.942, 227.410 172.995, 227.797 172.988 C 234.460 172.876, 246.935 166.485, 249.687 161.774 C 292.145 89.092, 220.103 -1.285, 133.500 16.018 M 239 99.774 C 239 100.344, 240.978 101.969, 243.395 103.385 C 245.812 104.802, 248.933 107.320, 250.330 108.980 C 253.321 112.535, 254 112.716, 254 109.961 C 254 106.585, 247.049 100.019, 242.750 99.335 C 240.446 98.968, 239 99.138, 239 99.774 M 56.126 102.883 C 53.163 105.651, 50.438 110.771, 51.410 111.744 C 51.667 112, 53.257 110.638, 54.944 108.716 C 56.632 106.794, 59.584 104.476, 61.506 103.564 C 65.754 101.549, 66.014 100, 62.106 100 C 60.296 100, 58.055 101.081, 56.126 102.883 M 70.753 109.460 C 59.353 117.394, 59.008 139.074, 70.104 150.191 C 80.914 161.020, 103.180 159.952, 107.594 148.393 C 115.507 127.673, 87.346 97.913, 70.753 109.460 M 215.261 109.515 C 195.794 119.372, 188.059 149.437, 203.596 154.864 C 224.563 162.188, 242.060 149.289, 241.978 126.568 C 241.920 110.472, 229.292 102.412, 215.261 109.515 M 72.191 121.025 C 67.931 123.622, 67.901 129.113, 72.130 132.256 C 78.833 137.239, 86.495 127.404, 80.545 121.455 C 77.570 118.479, 76.460 118.422, 72.191 121.025 M 217.455 121.455 C 214.456 124.453, 214.351 126.905, 217.073 130.365 C 219.631 133.617, 222.957 133.739, 225.826 130.686 C 231.763 124.365, 223.574 115.335, 217.455 121.455 M 229.374 143.545 C 225.983 147, 222.464 149.433, 218.977 150.734 C 213.162 152.903, 213.685 154.645, 219.815 153.525 C 227.491 152.122, 236 144.817, 236 139.632 C 236 137.212, 235.022 137.790, 229.374 143.545 M 68.510 142.250 C 70.331 148.606, 84.126 156.700, 89.575 154.610 C 91.710 153.790, 90.381 152, 87.637 152 C 83.934 152, 75.343 147.139, 72.531 143.451 C 69.519 139.502, 67.554 138.916, 68.510 142.250 M 58.427 184.750 C 56.881 186.813, 52.238 191.747, 48.108 195.716 C 39.523 203.965, 39.535 204.739, 48.219 203.053 C 59.311 200.900, 68 194.869, 68 189.324 C 68 183.457, 61.665 180.430, 58.427 184.750 M 93.500 184.250 C 92.118 191.060, 83.650 206.386, 78.268 211.815 C 70.930 219.219, 71.761 222.882, 79.683 218.052 C 87.768 213.122, 94.694 200.040, 95.724 187.751 C 96.322 180.614, 94.742 178.126, 93.500 184.250 M 239.750 184.115 C 233.316 188.916, 245.529 200.268, 258.750 201.776 C 264.052 202.380, 264.037 201.339, 258.689 197.468 C 256.385 195.801, 252.475 191.670, 250 188.288 C 245.072 181.555, 243.849 181.057, 239.750 184.115 M 233.004 195.623 C 233.009 196.946, 250.161 214.528, 252.799 215.915 C 255.780 217.481, 261.040 215.863, 266.250 211.775 C 270.519 208.424, 271.441 205.240, 267.750 206.589 C 258.981 209.796, 245.680 206.433, 237.574 198.962 C 235.058 196.643, 233.002 195.140, 233.004 195.623 M 53 209.213 C 51.625 209.744, 47.217 209.980, 43.205 209.737 C 34.461 209.207, 33.696 210.909, 41 214.643 C 47.430 217.930, 51.340 217.735, 54.004 213.994 C 56.828 210.028, 56.382 207.905, 53 209.213 M 154.249 240.250 C 153.650 242.588, 152.364 247.276, 151.390 250.668 C 148.858 259.490, 151.387 262.481, 157.347 257.712 C 160.014 255.578, 160.130 255.183, 159.186 251.467 C 158.632 249.285, 157.881 244.912, 157.517 241.750 C 156.731 234.915, 155.732 234.456, 154.249 240.250 M 203.710 244.750 C 204.021 247.912, 204.329 250.578, 204.394 250.673 C 204.460 250.768, 206.085 249.551, 208.006 247.967 C 211.500 245.088, 211.500 245.088, 209.299 243.522 C 208.089 242.660, 206.433 241.290, 205.621 240.478 C 203.307 238.165, 203.107 238.614, 203.710 244.750 M 204.818 258.255 C 202.438 260.248, 202.101 261.311, 201.818 267.720 C 201.423 276.688, 202.625 277.250, 206.334 269.834 C 211.733 259.039, 210.958 253.115, 204.818 258.255" stroke="none" fill="#2c373a" fill-rule="evenodd"/><path d="M 134.720 6.521 C 128.349 7.911, 127.016 8.378, 112.500 14.302 C 45.325 41.717, 13.329 125.381, 53.509 168.554 C 60.405 175.965, 61.056 174.067, 46.750 188.241 C 29.732 205.101, 28.431 207.584, 33.151 214.211 C 35.263 217.178, 43.896 221.971, 47.162 221.990 C 48.588 221.999, 48.802 223.153, 48.662 230.101 C 48.417 242.327, 55.572 246.733, 76.730 247.387 C 87.052 247.705, 89 248.666, 89 253.439 C 89 270.743, 99.561 295.101, 110.147 302.210 C 116.387 306.401, 117.781 304.063, 113.871 295.968 C 106.855 281.447, 105.620 258.586, 112.038 262.020 C 114.213 263.184, 114.239 263.278, 116.544 278.500 C 119.585 298.574, 123.380 307.028, 129.323 306.968 C 136.707 306.894, 139.886 299.541, 143.718 273.664 C 144.400 269.059, 145.514 268.481, 150.053 270.377 C 153.063 271.633, 154.008 271.629, 157.500 270.342 C 159.700 269.532, 162.175 268.651, 163 268.386 C 164.100 268.032, 165.140 269.715, 166.903 274.702 C 171.031 286.381, 176.322 296.294, 181.066 301.240 C 197.500 318.371, 222.438 287.585, 216.093 258 C 214.613 251.095, 215.779 250, 224.610 250 C 247.755 250, 262.846 237.613, 256.580 223.758 C 255.756 221.935, 256.115 221.690, 261.275 220.558 C 275.099 217.525, 276.849 203.275, 264.481 194.449 C 252.327 185.776, 248.172 178.114, 253.086 173.437 C 276.349 151.294, 274.903 89.714, 250.249 52.620 C 227.038 17.699, 176.295 -2.550, 134.720 6.521 M 133.500 16.018 C 93.739 23.962, 62.814 48.482, 52.107 80.554 C 37.571 124.093, 45.011 158.210, 71.904 171.338 C 77.351 173.998, 79 173.579, 79 169.535 C 79 165.295, 81.774 163.274, 85.129 165.069 C 91.107 168.269, 85.971 180.608, 69.589 202.401 C 48.652 230.253, 47.764 237.500, 65.043 239.505 C 79.705 241.207, 87.967 236.953, 89.667 226.829 C 90.912 219.417, 95.466 207.133, 96.563 208.229 C 96.858 208.524, 96.514 211.856, 95.800 215.633 C 91.591 237.868, 94.859 273.264, 102.262 285.641 C 106.703 293.066, 108.163 293.264, 106.197 286.175 C 102.499 272.834, 104.285 253.129, 109.925 245.058 C 111.028 243.479, 111.968 239.646, 112.382 235.043 C 113.119 226.849, 114.668 220.127, 118.962 206.500 C 122.361 195.715, 125.011 183.054, 125.870 173.500 C 126.345 168.224, 126.869 166.500, 128 166.500 C 132.633 166.500, 130.765 192.053, 124.601 213 C 114.966 245.740, 120.917 312.940, 132.432 301.425 C 134.002 299.855, 134.241 298.857, 136.485 284.500 C 137.259 279.550, 138.578 272.575, 139.416 269 C 143.729 250.600, 145.184 244.741, 147.487 236.500 C 154.540 211.267, 156.057 199.532, 153.501 190 C 151.516 182.596, 150.736 170.906, 151.705 163.082 C 152.725 154.849, 155 153.561, 155 161.217 C 155 167.026, 157.839 180.732, 160.549 188 C 161.703 191.097, 162.465 197.645, 162.992 209 C 163.414 218.075, 164.038 226.175, 164.379 227 C 164.935 228.345, 165.813 232.699, 170.530 257.500 C 178.192 297.792, 189.395 309.588, 204.316 293.072 C 210.414 286.322, 217.210 259.261, 211.647 263.878 C 210.741 264.630, 210 265.880, 210 266.656 C 210 271.565, 201.918 283, 198.448 283 C 194.274 283, 193.917 281.284, 195.168 267.218 C 197.536 240.593, 194.452 221.281, 184.512 200.500 C 176.171 183.062, 172.255 161, 177.500 161 C 178.412 161, 179 161.930, 179 163.374 C 179 164.680, 180.514 169.518, 182.365 174.124 C 184.215 178.731, 186.079 183.625, 186.507 185 C 186.934 186.375, 189.853 193.575, 192.993 201 C 196.133 208.425, 199.271 216.975, 199.967 220 C 202.037 229.004, 209.913 235.884, 221.059 238.423 C 256.199 246.428, 262.798 234.160, 236.495 209.728 C 227.387 201.267, 225.135 197.023, 220.043 178.719 C 216.304 165.280, 220.174 157.358, 225.071 168.427 C 226.183 170.942, 227.410 172.995, 227.797 172.988 C 234.460 172.876, 246.935 166.485, 249.687 161.774 C 292.145 89.092, 220.103 -1.285, 133.500 16.018 M 239 99.774 C 239 100.344, 240.978 101.969, 243.395 103.385 C 245.812 104.802, 248.933 107.320, 250.330 108.980 C 253.321 112.535, 254 112.716, 254 109.961 C 254 106.585, 247.049 100.019, 242.750 99.335 C 240.446 98.968, 239 99.138, 239 99.774 M 56.126 102.883 C 53.163 105.651, 50.438 110.771, 51.410 111.744 C 51.667 112, 53.257 110.638, 54.944 108.716 C 56.632 106.794, 59.584 104.476, 61.506 103.564 C 65.754 101.549, 66.014 100, 62.106 100 C 60.296 100, 58.055 101.081, 56.126 102.883 M 70.753 109.460 C 59.353 117.394, 59.008 139.074, 70.104 150.191 C 80.914 161.020, 103.180 159.952, 107.594 148.393 C 115.507 127.673, 87.346 97.913, 70.753 109.460 M 215.261 109.515 C 195.794 119.372, 188.059 149.437, 203.596 154.864 C 224.563 162.188, 242.060 149.289, 241.978 126.568 C 241.920 110.472, 229.292 102.412, 215.261 109.515 M 72.191 121.025 C 67.931 123.622, 67.901 129.113, 72.130 132.256 C 78.833 137.239, 86.495 127.404, 80.545 121.455 C 77.570 118.479, 76.460 118.422, 72.191 121.025 M 217.455 121.455 C 214.456 124.453, 214.351 126.905, 217.073 130.365 C 219.631 133.617, 222.957 133.739, 225.826 130.686 C 231.763 124.365, 223.574 115.335, 217.455 121.455 M 229.374 143.545 C 225.983 147, 222.464 149.433, 218.977 150.734 C 213.162 152.903, 213.685 154.645, 219.815 153.525 C 227.491 152.122, 236 144.817, 236 139.632 C 236 137.212, 235.022 137.790, 229.374 143.545 M 68.510 142.250 C 70.331 148.606, 84.126 156.700, 89.575 154.610 C 91.710 153.790, 90.381 152, 87.637 152 C 83.934 152, 75.343 147.139, 72.531 143.451 C 69.519 139.502, 67.554 138.916, 68.510 142.250 M 58.427 184.750 C 56.881 186.813, 52.238 191.747, 48.108 195.716 C 39.523 203.965, 39.535 204.739, 48.219 203.053 C 59.311 200.900, 68 194.869, 68 189.324 C 68 183.457, 61.665 180.430, 58.427 184.750 M 93.500 184.250 C 92.118 191.060, 83.650 206.386, 78.268 211.815 C 70.930 219.219, 71.761 222.882, 79.683 218.052 C 87.768 213.122, 94.694 200.040, 95.724 187.751 C 96.322 180.614, 94.742 178.126, 93.500 184.250 M 239.750 184.115 C 233.316 188.916, 245.529 200.268, 258.750 201.776 C 264.052 202.380, 264.037 201.339, 258.689 197.468 C 256.385 195.801, 252.475 191.670, 250 188.288 C 245.072 181.555, 243.849 181.057, 239.750 184.115 M 233.004 195.623 C 233.009 196.946, 250.161 214.528, 252.799 215.915 C 255.780 217.481, 261.040 215.863, 266.250 211.775 C 270.519 208.424, 271.441 205.240, 267.750 206.589 C 258.981 209.796, 245.680 206.433, 237.574 198.962 C 235.058 196.643, 233.002 195.140, 233.004 195.623 M 53 209.213 C 51.625 209.744, 47.217 209.980, 43.205 209.737 C 34.461 209.207, 33.696 210.909, 41 214.643 C 47.430 217.930, 51.340 217.735, 54.004 213.994 C 56.828 210.028, 56.382 207.905, 53 209.213 M 154.249 240.250 C 153.650 242.588, 152.364 247.276, 151.390 250.668 C 148.858 259.490, 151.387 262.481, 157.347 257.712 C 160.014 255.578, 160.130 255.183, 159.186 251.467 C 158.632 249.285, 157.881 244.912, 157.517 241.750 C 156.731 234.915, 155.732 234.456, 154.249 240.250 M 203.710 244.750 C 204.021 247.912, 204.329 250.578, 204.394 250.673 C 204.460 250.768, 206.085 249.551, 208.006 247.967 C 211.500 245.088, 211.500 245.088, 209.299 243.522 C 208.089 242.660, 206.433 241.290, 205.621 240.478 C 203.307 238.165, 203.107 238.614, 203.710 244.750 M 204.818 258.255 C 202.438 260.248, 202.101 261.311, 201.818 267.720 C 201.423 276.688, 202.625 277.250, 206.334 269.834 C 211.733 259.039, 210.958 253.115, 204.818 258.255" stroke="none" fill="#2c373a" fill-rule="evenodd"/><path d="M 137.500 16.586 C 136.400 16.854, 131.450 18.030, 126.500 19.200 C 116.608 21.537, 103.359 26.561, 96.143 30.711 C 84.507 37.404, 67.065 52.678, 68.467 54.947 C 68.793 55.474, 67.471 57.986, 65.530 60.529 C 61.378 65.967, 60.655 69.578, 64.573 65.306 C 67.146 62.500, 67.146 62.500, 64.945 65.669 C 63.666 67.510, 62.168 68.618, 61.372 68.312 C 59.439 67.571, 59.589 67.157, 64.003 61.054 C 66.169 58.059, 67.725 55.392, 67.460 55.127 C 66.273 53.940, 56.109 71.090, 53.651 78.428 C 51.713 84.211, 51.702 84.302, 52.989 83.507 C 53.555 83.157, 53.724 83.557, 53.384 84.442 C 53.057 85.293, 52.410 85.754, 51.946 85.466 C 51.481 85.179, 50.834 86.644, 50.507 88.722 C 50.181 90.800, 49.257 95.425, 48.454 99 C 45.229 113.364, 46.440 133.163, 50.984 140.357 C 57.820 151.182, 76.532 166.868, 79.303 164.097 C 84.988 158.412, 89.897 166.320, 87.103 176.660 C 84.337 186.891, 83.419 188.694, 78.789 192.968 C 76.458 195.121, 74.858 197.192, 75.235 197.569 C 75.612 197.946, 74.496 200.335, 72.753 202.877 C 68.792 208.657, 65 212.823, 65 211.395 C 65 210.798, 65.825 209.563, 66.834 208.650 C 68.949 206.736, 75.359 198, 74.648 198 C 73.945 198, 64.532 209.996, 62.366 213.651 C 61.340 215.384, 59.216 218.984, 57.647 221.651 C 51.612 231.909, 53.211 236.303, 63.612 238.047 C 75.064 239.966, 86.564 236.165, 87.542 230.137 C 89.330 219.123, 94.361 206.171, 96.500 207.077 C 97.612 207.547, 97.363 215.330, 95.944 224.500 C 94.083 236.518, 95.575 265.536, 98.462 273.500 C 99.912 277.500, 99.912 277.500, 99.956 268.197 C 100.018 255.041, 102.232 245.256, 111.158 218.684 C 114.969 207.337, 115.870 203.549, 115.005 202.506 C 114.153 201.479, 114.250 200.416, 115.400 198.193 C 116.239 196.571, 118.076 192.186, 119.483 188.450 C 120.889 184.714, 122.430 181.172, 122.908 180.579 C 123.386 179.985, 124.087 176.771, 124.465 173.435 C 125.273 166.319, 126.084 164.677, 128.557 165.153 C 132.650 165.941, 132.444 191.027, 128.077 223.500 C 126.968 231.750, 126.047 240.727, 126.030 243.450 C 125.986 250.688, 124.170 247.874, 123.803 240 C 123.636 236.425, 123.070 233.500, 122.545 233.500 C 117.491 233.500, 121.671 286.628, 127.639 298.250 C 131.070 304.932, 132.576 301.797, 133.523 286 C 134.049 277.238, 137.053 259.870, 142.172 236 C 146.712 214.836, 149.934 188.963, 149.970 173.399 C 150.021 151.194, 154.484 145.815, 156.749 165.229 C 157.436 171.117, 159.187 179.436, 160.639 183.717 C 162.392 188.882, 163.545 195.032, 164.067 202 C 164.499 207.775, 165.281 214.300, 165.804 216.500 C 166.328 218.700, 167.740 225.225, 168.944 231 C 175.068 260.386, 185 295.796, 187.666 297.745 C 195.629 303.567, 209.192 289.490, 211.267 273.250 C 212.058 267.059, 210.983 268.037, 206.609 277.488 C 196.059 300.283, 193.286 296.597, 192.533 258.781 C 191.937 228.825, 191.816 227.757, 188.668 224.500 C 186.744 222.510, 186.737 222.515, 187.296 225.521 C 188.670 232.904, 189.246 246, 188.197 246 C 186.538 246, 186.102 244.811, 184.466 235.833 C 183.632 231.250, 182.295 223.900, 181.497 219.500 C 180.699 215.100, 179.356 207.900, 178.513 203.500 C 174.169 180.830, 173.012 166.263, 175.178 161.508 C 176.830 157.883, 179.256 158.758, 180.204 163.320 C 181.659 170.322, 189.148 187.746, 190.649 187.620 C 191.443 187.553, 193.861 190.795, 196.152 195 C 203.750 208.944, 212.097 218.973, 222.534 226.694 C 225.077 228.576, 225.215 228.892, 223.500 228.913 C 222.400 228.926, 220.626 228.276, 219.559 227.468 C 216.915 225.468, 213 225.557, 213 227.618 C 213 238.201, 246.887 243.929, 250.984 234.038 C 252.750 229.774, 250.354 225.857, 244.971 224.206 C 242.651 223.495, 239.344 221.838, 237.622 220.525 C 235.900 219.212, 233.368 217.664, 231.996 217.086 C 223.437 213.480, 216.492 207.108, 218.708 204.892 C 219.511 204.089, 219.400 202.808, 218.298 200.171 C 212.632 186.610, 213.855 163.804, 220.319 162.475 C 249.904 156.391, 264.641 114.161, 240.913 103.461 C 236.673 101.549, 235.936 99.640, 238.838 98.087 C 240.920 96.972, 244.430 97.639, 247.750 99.779 C 257.356 105.972, 242.619 63.998, 230.743 51.336 C 227.733 48.128, 227.796 45.327, 230.851 46.493 C 237.043 48.857, 217.340 33.213, 208.498 28.745 C 189.123 18.955, 153.099 12.785, 137.500 16.586 M 110.224 25.420 C 89.342 33.839, 72.738 47.365, 76.993 52.491 C 78.664 54.505, 81.568 53.657, 91.146 48.359 C 95.477 45.964, 103.404 41.716, 108.760 38.921 C 122.759 31.615, 127.996 27.923, 127.998 25.357 C 128.002 20.885, 121.416 20.908, 110.224 25.420 M 214.250 46.662 C 211.328 47.841, 217.322 55.718, 220.376 54.713 C 222.664 53.961, 222.125 50.243, 219.420 48.115 C 216.623 45.916, 216.315 45.829, 214.250 46.662 M 56.828 100.787 C 52.669 103.860, 50 107.814, 50 110.904 C 50 114.168, 52.640 113.405, 56.631 108.987 C 58.625 106.780, 61.336 104.703, 62.655 104.372 C 65.655 103.619, 67.355 100.755, 65.753 99.153 C 63.902 97.302, 60.769 97.875, 56.828 100.787 M 74.791 105.991 C 51.995 112.843, 57.522 151.282, 82.342 158.497 C 85.433 159.396, 88.223 160.552, 88.541 161.066 C 91.233 165.422, 102.645 160.292, 106.947 152.791 C 118.028 133.468, 94.980 99.922, 74.791 105.991 M 220.718 106.094 C 204.713 109.852, 189.806 132.897, 194.421 146.745 C 199.906 163.208, 206.923 165.311, 225.924 156.190 C 252.416 143.471, 247.869 99.719, 220.718 106.094 M 116.519 157.973 C 112.842 163.279, 113.667 166.085, 117.998 163.001 C 121.512 160.499, 123.379 157.430, 122.608 155.422 C 121.650 152.923, 119.351 153.886, 116.519 157.973 M 91.563 185.750 C 88.521 195.458, 86.096 199.107, 75.357 210.140 C 64.530 221.263, 64.069 221.982, 66.487 223.989 C 75.115 231.150, 95.550 206.689, 96.761 187.750 C 97.420 177.445, 94.516 176.328, 91.563 185.750 M 221 198.470 C 221 201.739, 228.895 213, 231.187 213 C 232.640 213, 232.060 211.342, 228.596 205.589 C 223.471 197.078, 221 194.762, 221 198.470 M 248.796 211.151 C 254.584 216.550, 261.203 215.937, 267 209.468 C 268.375 207.933, 268.884 207.034, 268.132 207.471 C 264.950 209.316, 259.732 209.665, 252.443 208.521 C 244.670 207.302, 244.670 207.302, 248.796 211.151 M 37.446 210.913 C 38.394 212.447, 46.474 216, 49.015 216 C 50.032 216, 51.862 214.598, 53.082 212.885 C 55.300 209.770, 55.300 209.770, 52.900 210.635 C 49.803 211.751, 41.055 211.700, 38.586 210.551 C 37.156 209.885, 36.868 209.977, 37.446 210.913" stroke="none" fill="#d1dcc4" fill-rule="evenodd"/></svg>